<svg width="393" height="284" viewBox="0 0 393 284" fill="none" xmlns="http://www.w3.org/2000/svg">
<path d="M230.565 157.808C441.359 108.07 488.682 304.013 485.994 408.202C471.75 468.288 619.748 439.798 739.627 491.669C859.505 543.539 628.655 668.179 583.219 689.543C537.783 710.908 355.061 775.765 401.268 689.094C447.474 602.423 372.997 514.87 226.955 584.565C80.9137 654.261 3.57136 533.535 -38.3802 268.182C-80.3318 2.82919 -32.9268 219.982 230.565 157.808Z" fill="#6342E8"/>
<path d="M230.565 187.808C441.359 138.07 488.682 334.013 485.994 438.202C471.75 498.288 619.748 469.798 739.627 521.669C859.505 573.539 628.655 698.179 583.219 719.543C537.783 740.908 355.061 805.765 401.268 719.094C447.474 632.423 372.997 544.87 226.955 614.565C80.9137 684.261 3.57136 563.535 -38.3802 298.182C-80.3318 32.8292 -32.9268 249.982 230.565 187.808Z" fill="#44B5F4"/>
<path d="M230.565 209.808C441.359 160.07 488.682 356.013 485.994 460.202C471.75 520.288 619.748 491.798 739.627 543.669C859.505 595.539 628.655 720.179 583.219 741.543C537.783 762.908 355.061 827.765 401.268 741.094C447.474 654.423 372.997 566.87 226.955 636.565C80.9137 706.261 3.57136 585.535 -38.3802 320.182C-80.3318 54.8292 -32.9268 271.982 230.565 209.808Z" fill="#328DE0"/>
</svg>
