<svg width="393" height="348" viewBox="0 0 393 348" fill="none" xmlns="http://www.w3.org/2000/svg">
<path d="M-367.515 1C-55.6591 67.9278 -213.627 187.077 85.5879 225.576" stroke="black" stroke-opacity="0.05"/>
<path d="M230.565 221.808C441.359 172.07 488.682 368.013 485.994 472.202C471.75 532.288 619.748 503.798 739.627 555.669C859.505 607.539 628.655 732.179 583.219 753.543C537.783 774.908 355.061 839.765 401.268 753.094C447.474 666.423 372.997 578.87 226.955 648.565C80.9137 718.261 3.57136 597.535 -38.3802 332.182C-80.3318 66.8292 -32.9268 283.982 230.565 221.808Z" fill="#6342E8"/>
<path d="M230.565 251.808C441.359 202.07 488.682 398.013 485.994 502.202C471.75 562.288 619.748 533.798 739.627 585.669C859.505 637.539 628.655 762.179 583.219 783.543C537.783 804.908 355.061 869.765 401.268 783.094C447.474 696.423 372.997 608.87 226.955 678.565C80.9137 748.261 3.57136 627.535 -38.3802 362.182C-80.3318 96.8292 -32.9268 313.982 230.565 251.808Z" fill="#44B5F4"/>
<path d="M230.565 273.808C441.359 224.07 488.682 420.013 485.994 524.202C471.75 584.288 619.748 555.798 739.627 607.669C859.505 659.539 628.655 784.179 583.219 805.543C537.783 826.908 355.061 891.765 401.268 805.094C447.474 718.423 372.997 630.87 226.955 700.565C80.9137 770.261 3.57136 649.535 -38.3802 384.182C-80.3318 118.829 -32.9268 335.982 230.565 273.808Z" fill="#328DE0"/>
</svg>
