<svg width="160" height="312" viewBox="0 0 160 312" fill="none" xmlns="http://www.w3.org/2000/svg">
<path d="M94.1756 196.49C158.776 159.721 105.474 88.3707 70.7487 57.2917C47.8128 42.4949 91.0627 14.7201 101.559 -30.6101C112.055 -75.9404 18.3367 -57.0498 0.927758 -52.367C-16.4812 -47.6842 -79.5962 -22.4355 -40.6306 -7.41264C-1.66509 7.61024 9.92722 52.6282 -46.3644 67.3678C-102.656 82.1075 75.9465 139.933 -3.60441 229.11C-77.8185 312.305 13.4255 242.451 94.1756 196.49Z" fill="#44B5F4"/>
<path d="M113.176 196.49C177.776 159.721 124.474 88.3709 89.7488 57.2919C66.8129 42.4951 110.063 14.7203 120.559 -30.6099C131.055 -75.9401 37.3368 -57.0496 19.9278 -52.3668C2.51889 -47.684 -60.5961 -22.4353 -21.6305 -7.41237C17.335 7.6105 28.9273 52.6284 -27.3643 67.3681C-83.6559 82.1077 87.5192 133.826 15.3957 229.11C-101.318 383.305 32.4256 242.451 113.176 196.49Z" fill="#42B6E8" fill-opacity="0.8"/>
<path d="M75.1754 184.49C139.775 147.721 86.4741 76.3707 51.7485 45.2917C28.8126 30.4949 72.0625 2.71989 82.5587 -42.6103C93.0549 -87.9406 -0.663502 -69.05 -18.0724 -64.3672C-35.4814 -59.6845 -98.5964 -34.4356 -59.6308 -19.4127C-20.6653 -4.38985 -9.073 40.6282 -65.3646 55.3679C-121.656 70.1075 48.6159 121.149 -22.6046 217.11C-46.499 249.305 -5.57469 230.451 75.1754 184.49Z" fill="#328DE0"/>
</svg>
