<svg width="355" height="86" viewBox="0 0 355 86" fill="none" xmlns="http://www.w3.org/2000/svg">
<path fill-rule="evenodd" clip-rule="evenodd" d="M442.397 25.8414C496.933 25.9775 555.631 40.6264 620.807 85.2159L621.372 84.3906C556.031 39.6889 497.138 24.978 442.4 24.8414C388.927 24.708 339.438 38.4851 291.842 51.7351C290.734 52.0435 289.627 52.3517 288.521 52.6594C239.881 66.192 193.191 78.8135 146.066 75.1709C98.9741 71.5308 51.4037 51.6426 1.0392 0.044391L0.323616 0.742879C50.8362 52.4928 98.626 72.5069 145.989 76.1679C193.318 79.8264 240.177 67.1476 288.789 53.6228C289.88 53.3193 290.972 53.0154 292.065 52.7112C339.692 39.4528 389.064 25.7083 442.397 25.8414Z" fill="#5532E0" fill-opacity="0.05"/>
</svg>
