<svg width="393" height="103" viewBox="0 0 393 103" fill="none" xmlns="http://www.w3.org/2000/svg">
<path d="M-1.82118 37.5331L-2.5 37.2731V38V61.5V61.8685L-2.14799 61.9776L33.352 72.9776L33.3653 72.9817L33.3787 72.9851L57.3787 78.9851L57.3995 78.9903L57.4207 78.9937L85.4207 83.4937L85.4206 83.4938L85.4317 83.4953L99.9317 85.4953L99.9571 85.4988L99.9828 85.4997L114.472 85.9992L114.483 85.9997L123.472 86.4992L123.486 86.5H123.5H132H141H149.5H149.515L149.53 86.4991L166.03 85.4991L166.046 85.4981L166.062 85.4961L182.062 83.4961L182.07 83.4952L182.077 83.494L214.077 78.494L214.09 78.4921L214.102 78.4895L226.102 75.9895L226.112 75.9875L226.121 75.9851L236.101 73.4901L263.557 68.9973L293.009 67.0006L307.968 67.4992L323.421 68.9946L338.868 72.4828L354.323 77.4681L370.283 84.4508L379.735 89.4256L385.206 93.4044L385.64 93.7199L385.924 93.265L388.424 89.265L388.448 89.2271L388.464 89.1857L390.464 84.1857L390.483 84.1377L390.492 84.0869L391.992 75.5869L392.044 75.2948L391.812 75.1096L389.312 73.1096L389.295 73.096L389.277 73.084L381.777 68.084L381.758 68.0709L381.737 68.0598L368.737 61.0598L368.724 61.0525L368.71 61.046L355.71 55.046L355.687 55.0356L355.664 55.0275L342.664 50.5275L342.637 50.5184L342.61 50.5123L327.11 47.0123L327.098 47.0095L327.086 47.0074L315.586 45.0074L315.565 45.0037L315.543 45.0019L304.043 44.0019L304.03 44.0007L304.017 44.0003L289.517 43.5003L289.509 43.5H289.5H277.5H277.475L277.45 43.5025L262.45 45.0025L262.45 45.0023L262.438 45.0039L254.438 46.0039L254.429 46.0049L254.421 46.0063L241.921 48.0063L241.911 48.0078L241.902 48.0097L231.902 50.0096L231.892 50.0119L209.401 55.0097L184.429 59.5047L170.458 61.0017L170.447 61.0028L158.458 62.0017L158.455 62.0021L147.477 63H141H132H119.007L102.038 62.5009L90.062 61.0039L70.0848 58.5067L49.6183 54.0141L21.6545 46.5238L-1.82118 37.5331Z" fill="#44B5F4" stroke="#44B5F4"/>
<path d="M4.07294 6.19843L0 4.63858V9V32.5V34.7111L2.11207 35.3656L37.6121 46.3656L37.6916 46.3902L37.7724 46.4104L61.7724 52.4104L61.8971 52.4416L62.024 52.462L90.024 56.962L90.057 56.9673L90.0901 56.9719L104.59 58.9719L104.743 58.9929L104.897 58.9982L119.365 59.4971L128.334 59.9954L128.417 60H128.5H137H146H154.5H154.591L154.681 59.9945L171.181 58.9945L171.277 58.9887L171.372 58.9768L187.372 56.9768L187.418 56.9711L187.463 56.964L219.463 51.964L219.538 51.9524L219.612 51.9369L231.612 49.4369L231.67 49.4248L231.728 49.4104L241.607 46.9406L268.844 42.4835L298.052 40.5034L312.805 40.9952L328.023 42.4679L343.207 45.8966L358.436 50.8089L374.198 57.7051L383.411 62.5537L388.735 66.4262L391.338 68.3191L393.044 65.59L395.544 61.59L395.686 61.3629L395.785 61.1142L397.785 56.1142L397.901 55.8265L397.954 55.5214L399.454 47.0214L399.764 45.269L398.374 44.1574L395.874 42.1574L395.772 42.0761L395.664 42.0038L388.164 37.0038L388.047 36.9255L387.922 36.8586L374.922 29.8586L374.841 29.8148L374.757 29.7761L361.757 23.7761L361.622 23.7137L361.481 23.665L348.481 19.165L348.324 19.1104L348.161 19.0737L332.661 15.5737L332.588 15.5572L332.514 15.5444L321.014 13.5444L320.888 13.5224L320.76 13.5113L309.26 12.5113L309.182 12.5045L309.103 12.5018L294.603 12.0018L294.552 12H294.5H282.5H282.35L282.201 12.0149L267.201 13.5149L267.165 13.5186L267.128 13.5232L259.128 14.5232L259.077 14.5295L259.026 14.5377L246.526 16.5377L246.469 16.5469L246.412 16.5583L236.412 18.5583L236.38 18.5645L236.349 18.5714L213.909 23.5582L189.074 28.0285L175.216 29.5133L163.251 30.5104L163.24 30.5113L163.228 30.5123L152.364 31.5H146H137H124.044L107.231 31.0055L95.3721 29.5232L75.5087 27.0402L55.2101 22.5844L27.4271 15.1426L4.07294 6.19843Z" fill="#6342E8" stroke="#6342E8" stroke-width="6"/>
<path d="M4.07294 64.1984L0 62.6386V67V90.5V92.7111L2.11207 93.3656L37.6121 104.366L37.6916 104.39L37.7724 104.41L61.7724 110.41L61.8971 110.442L62.024 110.462L90.024 114.962L90.057 114.967L90.0901 114.972L104.59 116.972L104.743 116.993L104.897 116.998L119.365 117.497L128.334 117.995L128.417 118H128.5H137H146H154.5H154.591L154.681 117.995L171.181 116.995L171.277 116.989L171.372 116.977L187.372 114.977L187.418 114.971L187.463 114.964L219.463 109.964L219.538 109.952L219.612 109.937L231.612 107.437L231.67 107.425L231.728 107.41L241.607 104.941L268.844 100.484L298.052 98.5034L312.805 98.9952L328.023 100.468L343.207 103.897L358.436 108.809L374.198 115.705L383.411 120.554L388.735 124.426L391.338 126.319L393.044 123.59L395.544 119.59L395.686 119.363L395.785 119.114L397.785 114.114L397.901 113.826L397.954 113.521L399.454 105.021L399.764 103.269L398.374 102.157L395.874 100.157L395.772 100.076L395.664 100.004L388.164 95.0038L388.047 94.9255L387.922 94.8586L374.922 87.8586L374.841 87.8148L374.757 87.7761L361.757 81.7761L361.622 81.7137L361.481 81.665L348.481 77.165L348.324 77.1104L348.161 77.0737L332.661 73.5737L332.588 73.5572L332.514 73.5444L321.014 71.5444L320.888 71.5224L320.76 71.5113L309.26 70.5113L309.182 70.5045L309.103 70.5018L294.603 70.0018L294.552 70H294.5H282.5H282.35L282.201 70.0149L267.201 71.5149L267.165 71.5186L267.128 71.5232L259.128 72.5232L259.077 72.5295L259.026 72.5377L246.526 74.5377L246.469 74.5469L246.412 74.5583L236.412 76.5583L236.38 76.5645L236.349 76.5714L213.909 81.5582L189.074 86.0285L175.216 87.5133L163.251 88.5104L163.24 88.5113L163.228 88.5123L152.364 89.5H146H137H124.044L107.231 89.0055L95.3721 87.5232L75.5087 85.0402L55.2101 80.5844L27.4271 73.1426L4.07294 64.1984Z" fill="#328DE0" stroke="#328DE0" stroke-width="6"/>
</svg>
