<svg xmlns="http://www.w3.org/2000/svg" xmlns:xlink="http://www.w3.org/1999/xlink" width="768" zoomAndPan="magnify" viewBox="0 0 576 74.999997" height="100" preserveAspectRatio="xMidYMid meet" version="1.0"><defs><clipPath id="eaf4c46321"><path d="M 0 7 L 288 7 L 288 75 L 0 75 Z M 0 7 " clip-rule="nonzero"/></clipPath><clipPath id="822b0ef9d6"><path d="M 0 29 L 288 29 L 288 75 L 0 75 Z M 0 29 " clip-rule="nonzero"/></clipPath><clipPath id="600fcca1ba"><path d="M 0 45 L 288 45 L 288 75 L 0 75 Z M 0 45 " clip-rule="nonzero"/></clipPath></defs><g clip-path="url(#eaf4c46321)"><path fill="#6342e8" d="M 166.402344 26.359375 C 320.871094 -10.015625 355.546875 133.28125 353.578125 209.480469 C 343.140625 253.421875 451.59375 232.585938 539.4375 270.519531 C 627.28125 308.453125 458.121094 399.605469 424.824219 415.230469 C 391.53125 430.855469 257.632812 478.289062 291.492188 414.902344 C 325.351562 351.519531 270.777344 287.488281 163.757812 338.457031 C 56.742188 389.429688 0.0664062 301.140625 -30.675781 107.078125 C -61.417969 -86.980469 -26.679688 71.828125 166.402344 26.359375 Z M 166.402344 26.359375 " fill-opacity="1" fill-rule="nonzero"/></g><g clip-path="url(#822b0ef9d6)"><path fill="#44b5f4" d="M 166.402344 48.300781 C 320.871094 11.925781 355.546875 155.222656 353.578125 231.417969 C 343.140625 275.363281 451.59375 254.527344 539.4375 292.460938 C 627.28125 330.394531 458.121094 421.546875 424.824219 437.171875 C 391.53125 452.796875 257.632812 500.226562 291.492188 436.84375 C 325.351562 373.457031 270.777344 309.429688 163.757812 360.398438 C 56.742188 411.367188 0.0664062 323.078125 -30.675781 129.019531 C -61.417969 -65.042969 -26.679688 93.769531 166.402344 48.300781 Z M 166.402344 48.300781 " fill-opacity="1" fill-rule="nonzero"/></g><g clip-path="url(#600fcca1ba)"><path fill="#328de0" d="M 166.402344 64.386719 C 320.871094 28.011719 355.546875 171.3125 353.578125 247.507812 C 343.140625 291.449219 451.59375 270.617188 539.4375 308.550781 C 627.28125 346.484375 458.121094 437.636719 424.824219 453.261719 C 391.53125 468.886719 257.632812 516.316406 291.492188 452.933594 C 325.351562 389.546875 270.777344 325.519531 163.757812 376.488281 C 56.742188 427.457031 0.0664062 339.167969 -30.675781 145.109375 C -61.417969 -48.953125 -26.679688 109.855469 166.402344 64.386719 Z M 166.402344 64.386719 " fill-opacity="1" fill-rule="nonzero"/></g></svg>